<?xml version="1.0" encoding="utf-8"?>
<svg version="1.1" id="Layer_1" xmlns="http://www.w3.org/2000/svg" xmlns:xlink="http://www.w3.org/1999/xlink" x="0px" y="0px"
	 viewBox="-7.49 7.998 41 32" enable-background="new -7.49 7.998 41 32" xml:space="preserve">
<g>
	<rect x="-5.448" y="15.561" fill="#FFFFFF" width="29.438" height="21.25"/>
	<path fill="#808080" d="M22.742,13.826l-3.655-5.828H7.017l-3.909,5.828H-7.49v26.172c0,0,0.398,0,9.267,0
		c6.742,0,31.733,0,31.733,0V13.826H22.742z M-3.465,21.082v-2.941h3.739v2.941H-3.465z M13.009,35.664
		c-5.246,0-9.499-4.253-9.499-9.5s4.253-9.5,9.499-9.5c5.248,0,9.499,4.253,9.499,9.5S18.257,35.664,13.009,35.664z"/>
	<circle fill="#808080" cx="13.01" cy="26.248" r="7"/>
</g>
</svg>
