<?xml version="1.0" encoding="utf-8"?>
<svg version="1.1" id="Layer_1" xmlns="http://www.w3.org/2000/svg" xmlns:xlink="http://www.w3.org/1999/xlink" x="0px" y="0px"
	 viewBox="0 0 41.523 41.428" enable-background="new 0 0 41.523 41.428" xml:space="preserve">
<g>
	<path fill-rule="evenodd" clip-rule="evenodd" fill="#7A7A7A" d="M20.61,25.665c0.21,0.211,0.981,0.211,1.191,0
		c4.284-4.286,14.432-14.433,19.308-19.308c0.656-0.656,0.438-2.895,0-3.713c-0.372-0.695-1.537-1.851-2.229-2.228
		c-0.816-0.443-3.056-0.656-3.713,0c-4.286,4.288-14.697,14.698-19.307,19.308c-0.219,0.218-0.218,1.017,0,1.234
		C16.961,22.059,19.55,24.604,20.61,25.665z"/>
	<path display="none" fill-rule="evenodd" clip-rule="evenodd" fill="#D65A33" d="M32.726,34.576l-0.744,0.742l-0.742,0.742
		c0,0-1.104,0.575-1.484,0.743c-0.539,0.236-1.649,0.629-2.2,0.833c-0.55,0.204-1.673,0.583-2.256,0.652
		c-2.537,0.305-7.92,0.555-10.397,0c-0.81-0.181-2.149-0.476-3.048-1.123c-0.452-0.326-1.655-0.259-2.148,0
		c-0.465,0.243-1.054,0.84-1.286,1.244c-0.185,0.322-0.201,0.982,0.016,1.284c0.343,0.477,2.012,0.822,2.012,0.822
		s2.767,0.743,3.713,0.743c3.063,0,8.955,0,11.881,0c0.587,0,2.318-0.638,2.318-0.638s1.595-0.623,2.138-0.848
		c0.384-0.158,1.484-0.742,1.484-0.742l1.486-0.743v-0.743h0.742v-0.742h0.743v-0.743h0.742v-0.742h0.742v-0.742h0.743v-0.743h0.742
		v-1.484h0.742v-1.485h0.743v-7.427h-0.743v-2.228h-0.742v-0.743h-0.742v-1.485h-0.743v-0.743h-0.742v-0.742h-0.742v-0.743H34.21
		v-0.742h-0.742v0.742h-0.742v0.743h-0.744v1.485h0.744v0.743h0.742v0.742h0.742v0.743h0.743v1.485h0.742v1.484h0.742v5.941h-0.742
		v1.485h-0.742v0.743H34.21v0.742h-0.742v0.742L32.726,34.576z"/>
	<path fill-rule="evenodd" clip-rule="evenodd" fill="#D65A33" d="M15.363,21.209c-0.175-0.175-0.814-0.175-0.988,0
		c-1.556,1.557-5.173,4.867-6.683,6.684c-0.428,0.516-1.137,1.656-1.485,2.228c-0.432,0.708-1.211,2.187-1.485,2.971
		c-0.062,0.175-0.131,0.611,0,0.742c0.724,0.725,2.341,2.341,2.97,2.971c0.131,0.131,0.567,0.061,0.742,0
		c0.784-0.275,2.261-1.053,2.971-1.485c0.572-0.348,1.713-1.057,2.228-1.485c1.817-1.51,5.078-5.077,6.683-6.683
		c0.175-0.176,0.175-0.815,0-0.99C19.149,24.993,16.571,22.417,15.363,21.209z"/>
	<polygon display="none" fill-rule="evenodd" clip-rule="evenodd" fill="#D65A33" points="14.375,12.298 11.405,12.298 
		11.405,13.04 9.177,13.04 9.177,13.783 7.692,13.783 7.692,14.526 6.207,14.526 6.207,15.269 5.464,15.269 5.464,16.011 
		3.979,16.011 3.979,16.753 3.236,16.753 3.236,17.496 2.494,17.496 2.494,18.238 1.751,18.238 1.751,18.981 1.008,18.981 
		1.008,19.724 0.266,19.724 0.266,20.466 -0.477,20.466 -0.477,21.209 0.266,21.209 0.266,21.951 1.008,21.951 1.008,22.694 
		2.494,22.694 2.494,21.951 3.236,21.951 3.236,21.209 3.979,21.209 3.979,20.466 4.722,20.466 4.722,19.724 5.464,19.724 
		5.464,18.981 6.207,18.981 6.207,18.238 7.692,18.238 7.692,17.496 8.434,17.496 8.434,16.753 10.662,16.753 10.662,16.011 
		12.147,16.011 12.147,15.269 15.861,15.269 15.861,14.526 19.573,14.526 19.573,13.783 20.316,13.783 20.316,13.04 21.059,13.04 
		21.059,12.298 21.801,12.298 21.801,11.556 14.375,11.556 	"/>
	<path fill-rule="evenodd" clip-rule="evenodd" fill="#D65A33" d="M4.722,34.576c-0.262-0.263-1.142-0.142-1.485,0
		c-0.243,0.101-0.598,0.524-0.743,0.742c-0.229,0.346-0.606,1.094-0.743,1.485c-0.123,0.351-0.263,1.223,0,1.485
		c0.412,0.412,1.115,1.115,1.485,1.485c0.262,0.262,1.123,0.078,1.485,0c0.406-0.088,1.137-0.516,1.485-0.742
		c0.22-0.145,0.617-0.513,0.743-0.743c0.178-0.326,0.263-1.223,0-1.485C6.423,36.277,5.28,35.134,4.722,34.576z"/>
	<g>
		<path fill="none" stroke="#D86444" stroke-width="2.1543" stroke-miterlimit="10" d="M19.941,12.924
			c-7.07-0.175-15.95,2.575-18.947,9.764"/>
		<path fill="none" stroke="#D86444" stroke-width="2.1543" stroke-miterlimit="10" d="M8.899,38.155
			c2.97,1.388,6.504,2.195,10.293,2.195l0,0c10.466,0,18.998-6.161,18.998-13.72c0-3.848-2.21-7.333-5.761-9.828"/>
	</g>
</g>
</svg>
