<?xml version="1.0" encoding="utf-8"?>
<svg version="1.1" id="Layer_1" xmlns="http://www.w3.org/2000/svg" xmlns:xlink="http://www.w3.org/1999/xlink" x="0px" y="0px"
	 viewBox="0 0 20 20" enable-background="new 0 0 20 20" xml:space="preserve">
<g>
	<g>
		<polygon fill-rule="evenodd" clip-rule="evenodd" fill="#FFFFFF" points="3.158,10.877 16.843,10.877 17.193,10.527 17.193,0.702 
			2.807,0.702 2.807,10.527 		"/>
		<polygon fill-rule="evenodd" clip-rule="evenodd" fill="#FFFFFF" points="13.685,13.685 4.912,13.685 4.562,14.035 4.562,18.947 
			4.912,19.299 5.965,19.299 8.07,19.299 13.685,19.299 14.035,18.947 14.035,14.035 		"/>
	</g>
	<path fill-rule="evenodd" clip-rule="evenodd" fill="#9363A9" d="M5.965,14.737v4.562H4.912l-0.351-0.352v-4.912l0.351-0.351h8.773
		l0.351,0.351v4.912l-0.351,0.352H8.07v-4.562L7.72,14.387H6.316L5.965,14.737z M16.843,10.877H3.158l-0.351-0.351V0.702l0,0h14.386
		v9.825L16.843,10.877z M1.404,20H20V0H0v18.597L1.404,20z"/>
</g>
</svg>
