<?xml version="1.0" encoding="utf-8"?>
<svg version="1.1" id="Camada_1" xmlns="http://www.w3.org/2000/svg" xmlns:xlink="http://www.w3.org/1999/xlink" x="0px" y="0px"
	 viewBox="0 0 37.502 42" enable-background="new 0 0 37.502 42" xml:space="preserve">
<g>
	<g>
		<path fill-rule="evenodd" clip-rule="evenodd" fill="#3B7BB4" d="M17.255,3.287l-0.853-0.461L17.255,3.287z"/>
		<path fill-rule="evenodd" clip-rule="evenodd" fill="#3B7BB4" d="M19.492,5.916l-0.461-0.657L19.492,5.916z"/>
	</g>
	<g>
		<path fill-rule="evenodd" clip-rule="evenodd" fill="#626162" d="M15.519,36.377c-1.016-0.693-0.752-2.6-0.246-3.465
			c0.897-1.533,2.538-2.873,4.303-3.221c0.15,1.936,0.402,4.066,0.601,5.634C18.771,36.437,17.401,36.97,15.519,36.377
			L15.519,36.377z M22.976,32.208l-0.593-3.822l3.848-0.91C25.215,29.879,25.073,30.831,22.976,32.208L22.976,32.208z
			 M18.948,18.955l-5.833,0.107v2.629h6.573l-0.052,3.777c-3.622,2.748-8.058,4.399-7.835,10.026l0.068,2.464
			c1.696,3.815,7.656,1.069,9.051,1.005c1.905-0.087-0.151,0.918,2.937-0.615c0.94-3.703-1.484,0.306,2.534-4.696
			c1.291-1.606,2.085-3.652,3.326-5.22c1.811,0.176,1.723,0.287,3.343,1.577c2.683,8.001-3.431,7.535-8.714,9.597l1.312,2.356
			c8.321,0.666,15.936-7.974,9.348-14.556c-1.563-1.561-0.976-0.162-5.402-3.801c-4.526,0.552,0.258,1.371-7.286,1.371v-3.287
			l11.809-0.829l0.023-3.115c-3.395,0.003-8.759,1.417-11.775,1.146l1.077-3.94l-3.756-0.575L18.948,18.955z"/>
		<path fill-rule="evenodd" clip-rule="evenodd" fill="#626162" d="M5.172,23.719c-2.309-0.122-3.745-2.373-1.986-4.241
			c1.57-1.668,4.529-1.686,6.643-1.731C9.748,21.573,8.793,22.733,5.172,23.719L5.172,23.719z M1.453,10.686l-0.198,2.459
			c2.954-0.709,7.695-3.719,8.461,1.86C4,17.079-0.894,14.72,0.139,23.494c2.988,3.436,6.065,3.455,9.258,0.281
			c1.039,1.999,0.132,1.8,3.061,1.86c0-3.364,0.733-11.246-0.601-13.86C9.954,8.045,4.009,8.779,1.453,10.686z"/>
	</g>
	<path fill-rule="evenodd" clip-rule="evenodd" fill="#3E7CB5" d="M19.492,5.916c0.266,0.603,0.239,2.626,0.239,2.626l-3.753-3.295
		l-0.212,4.442l5.045,4.343l5.388-4.214l0.013-4.503l-3.787,3.345C22.33,3.195,21.27,0.424,16.513,0h-2.792
		C9.288,0.441,6.255,3.647,5.228,7.888c4.809,0.005,2.155-0.054,4.934-2.954c1.65-1.722,4.866-3.401,7.094-1.647
		C17.255,3.287,18.688,4.092,19.492,5.916C19.758,6.519,18.688,4.092,19.492,5.916z"/>
</g>
</svg>
